<svg width="27" height="25" viewBox="0 0 27 25" fill="none" xmlns="http://www.w3.org/2000/svg">
<path d="M19.9695 12.388V12.8962C19.9695 15.7472 19.9695 18.5973 19.9695 21.4483C19.9695 22.2744 19.7443 22.5 18.9177 22.5C15.3102 22.5 11.7035 22.5 8.09594 22.5C7.27176 22.5 7.04735 22.2736 7.04654 21.4458C7.04654 18.5949 7.04654 15.7448 7.04654 12.8938V12.388C6.80034 12.5229 6.60256 12.6256 6.40963 12.738C5.86395 13.056 5.58384 13.003 5.22785 12.4747C4.55461 11.4752 3.89349 10.4676 3.22672 9.46319C3.04186 9.1846 2.84812 8.91002 2.67295 8.62581C2.36136 8.1192 2.47518 7.63909 2.9789 7.31795C4.87993 6.10564 6.79146 4.90857 8.67796 3.67458C9.17037 3.35264 9.67489 3.24586 10.223 3.31731C10.4668 2.60116 10.6097 2.5 11.3475 2.5C12.7876 2.5 14.2277 2.5 15.6678 2.5C16.4088 2.5 16.5485 2.59875 16.7931 3.32213C17.6084 3.1174 18.2081 3.59751 18.8402 4.00215C20.558 5.10367 22.2806 6.19636 24 7.29467C24.5603 7.65274 24.6434 8.06381 24.281 8.60654C23.4196 9.89914 22.5591 11.1933 21.7019 12.4884C21.3701 12.9893 21.0795 13.0584 20.5588 12.7461C20.3877 12.6433 20.2182 12.5381 19.9703 12.3864L19.9695 12.388Z" fill="#262626"/>
</svg>
    