<svg width="27" height="25" viewBox="0 0 27 25" fill="none" xmlns="http://www.w3.org/2000/svg">
<path d="M13.3719 5.40647C13.9423 5.084 14.5535 4.74663 15.1537 4.3912C15.2439 4.33785 15.3129 4.20761 15.342 4.09934C15.5342 3.38379 15.6958 2.65882 15.9022 1.94798C16.0144 1.56353 16.296 1.41916 16.5761 1.54862C16.9096 1.70319 16.9072 1.97387 16.8099 2.27908C16.6758 2.70041 16.551 3.12566 16.4271 3.55012C16.2301 4.22801 16.2741 4.87765 16.5699 5.53279C16.9418 6.35583 16.7935 7.19377 16.4043 7.95561C15.8065 9.12466 15.8881 10.2529 16.3816 11.4212C17.3325 13.6761 18.6608 15.7043 20.0809 17.6791C20.7133 18.5594 21.4022 19.3989 22.0369 20.2777C22.1538 20.4393 22.2299 20.7531 22.1491 20.8991C22.0691 21.0442 21.7576 21.1493 21.563 21.1282C19.447 20.9038 17.4565 21.3502 15.6503 22.4094C13.3601 23.7526 11.0149 23.744 8.58819 22.9853C7.274 22.5742 6.0469 21.9653 4.89747 21.2058C4.41808 20.8889 4.38356 20.67 4.73898 20.2204C6.52393 17.9639 8.2265 15.6486 9.56266 13.0916C9.97771 12.2976 10.2947 11.451 10.6234 10.6154C10.9271 9.84334 10.8023 9.07758 10.4948 8.32908C10.3614 8.00347 10.2186 7.68022 10.1111 7.34598C9.93613 6.79834 9.86159 6.21068 10.1174 5.6952C10.6109 4.70033 10.4226 3.74235 10.1111 2.76867C10.0475 2.57016 9.97143 2.37558 9.90474 2.17865C9.8051 1.88521 9.88434 1.64591 10.177 1.53921C10.4657 1.43329 10.7137 1.54862 10.7992 1.8452C11.0118 2.58193 11.1891 3.32887 11.397 4.06795C11.4331 4.19506 11.5234 4.34256 11.6324 4.40847C12.2083 4.75683 12.7991 5.08165 13.3711 5.40725L13.3719 5.40647Z" fill="#4C4C4D"/>
</svg>
