<svg width="40" height="40" viewBox="0 0 40 40" fill="none" xmlns="http://www.w3.org/2000/svg">
<path d="M4 35.9999C4 33.8987 4.41385 31.8181 5.21792 29.8769C6.022 27.9357 7.20055 26.1719 8.68629 24.6862C10.172 23.2004 11.9358 22.0219 13.8771 21.2178C15.8183 20.4137 17.8988 19.9999 20 19.9999V35.9999L4 35.9999Z" fill="#1A1A1A"/>
<path d="M20 19.9999C20 22.101 20.4139 24.1816 21.2179 26.1228C22.022 28.064 23.2006 29.8278 24.6863 31.3136C26.172 32.7993 27.9358 33.9779 29.8771 34.7819C31.8183 35.586 33.8988 35.9999 36 35.9999L36 19.9999L20 19.9999Z" fill="#FFD400"/>
<path d="M20 19.9999C20 17.8987 19.5861 15.8181 18.7821 13.8769C17.978 11.9357 16.7994 10.1719 15.3137 8.68616C13.828 7.20043 12.0641 6.02188 10.1229 5.2178C8.18172 4.41373 6.10115 3.99988 4 3.99988L4 19.9999H20Z" fill="#FFD400"/>
<path d="M36 3.99988C36 6.10103 35.5861 8.1816 34.7821 10.1228C33.978 12.064 32.7994 13.8278 31.3137 15.3136C29.828 16.7993 28.0641 17.9779 26.1229 18.7819C24.1817 19.586 22.1011 19.9999 20 19.9999L20 3.99988H36Z" fill="#1A1A1A"/>
</svg>
